Coordinates
version=1
nRows=49
nColumns=12
inDegrees=yes

Units are S.I. units (second, meters, Newtons, ...)
Angles are in degrees

endheader
time	SC_y	SC_z	SC_x	AC_y	AC_z	AC_x	GH_y	GH_z	GH_yy	EL_x	PS_y
       0.0              -30.08          19.87          80.11          57.28         0.4074         -1.164          47.07         0.8448           66.4           94.1          33.66
   0.03994              -30.08          19.87           80.1          57.28         0.4066         -1.162          47.05         0.8472           66.4          94.09          33.66
   0.07988              -30.08          19.87          80.09          57.27         0.4057         -1.159          47.02         0.8498          66.39          94.08          33.65
    0.1198              -30.08          19.87          80.08          57.27         0.4048         -1.156          46.99         0.8526          66.39          94.07          33.65
    0.1598              -30.07          19.87          80.07          57.27         0.4038         -1.152          46.97         0.8556          66.38          94.06          33.65
    0.1997              -30.07          19.86          80.06          57.27         0.4028         -1.149          46.94         0.8587          66.38          94.05          33.64
    0.2397              -30.07          19.86          80.05          57.27         0.4016         -1.145          46.91         0.8621          66.37          94.04          33.64
    0.2796              -30.07          19.86          80.04          57.26         0.4004         -1.141          46.87         0.8657          66.36          94.03          33.64
    0.3195              -30.06          19.86          80.03          57.26         0.3991         -1.137          46.84         0.8696          66.35          94.02          33.63
    0.3595              -30.06          19.85          80.01          57.26         0.3977         -1.133           46.8         0.8737          66.35          94.01          33.63
    0.3994              -30.05          19.85           80.0          57.26         0.3962         -1.128          46.76         0.8781          66.34          93.99          33.62
    0.4394              -30.05          19.85          79.98          57.25         0.3946         -1.123          46.71         0.8829          66.33          93.98          33.62
    0.4793              -30.05          19.84          79.97          57.25         0.3929         -1.117          46.66         0.8881          66.32          93.96          33.61
    0.5192              -30.04          19.84          79.95          57.25          0.391         -1.111          46.61         0.8936          66.31          93.94          33.61
    0.5592              -30.04          19.84          79.93          57.24          0.389         -1.104          46.56         0.8997          66.29          93.93           33.6
    0.5991              -30.03          19.83          79.91          57.24         0.3868         -1.097           46.5         0.9062          66.28          93.91          33.59
    0.6391              -30.02          19.83          79.89          57.23         0.3844         -1.089          46.43         0.9133          66.27          93.88          33.58
     0.679              -30.02          19.82          79.86          57.23         0.3818         -1.081          46.36          0.921          66.25          93.86          33.57
     0.719              -30.01          19.82          79.83          57.22          0.379         -1.072          46.28         0.9295          66.23          93.83          33.57
    0.7589               -30.0          19.81           79.8          57.21         0.3759         -1.062          46.19         0.9387          66.22           93.8          33.55
    0.7988              -29.99           19.8          79.77          57.21         0.3725          -1.05           46.1         0.9489           66.2          93.77          33.54
    0.8388              -29.98          19.79          79.73           57.2         0.3687         -1.038          45.99           0.96          66.17          93.74          33.53
    0.8787              -29.97          19.79          79.69          57.19         0.3646         -1.025          45.88         0.9724          66.15           93.7          33.52
    0.9187              -29.96          19.78          79.65          57.18           0.36          -1.01          45.75         0.9861          66.12          93.65           33.5
    0.9586              -29.95          19.77           79.6          57.17         0.3549        -0.9932          45.61          1.001          66.09          93.61          33.48
    0.9985              -29.93          19.75          79.55          57.16         0.3492        -0.9746          45.45          1.018          66.06          93.55          33.47
     1.038              -29.91          19.74          79.49          57.15         0.3428        -0.9539          45.27          1.037          66.02          93.49          33.44
     1.078               -29.9          19.73          79.42          57.13         0.3356        -0.9305          45.07          1.059          65.98          93.42          33.42
     1.118              -29.87          19.71          79.34          57.12         0.3275        -0.9041          44.85          1.083          65.93          93.35          33.39
     1.158              -29.85          19.69          79.25           57.1         0.3183        -0.8741          44.59           1.11          65.87          93.26          33.36
     1.198              -29.82          19.67          79.15          57.08         0.3078        -0.8399           44.3          1.141          65.81          93.16          33.33
     1.238              -29.79          19.64          79.03          57.05         0.2957        -0.8006          43.97          1.177          65.74          93.05          33.29
     1.278              -29.76          19.62           78.9          57.03         0.2818        -0.7553          43.58          1.219          65.66          92.92          33.24
     1.318              -29.71          19.58          78.75          56.99         0.2656        -0.7026          43.13          1.267          65.56          92.77          33.19
     1.358              -29.66          19.54          78.56          56.96         0.2467         -0.641          42.61          1.323          65.45          92.59          33.12
     1.398              -29.61           19.5          78.35          56.91         0.2244        -0.5683          41.99           1.39          65.32          92.38          33.05
     1.438              -29.54          19.44           78.1          56.86         0.1979        -0.4819          41.25          1.469          65.16          92.13          32.96
     1.478              -29.45          19.38          77.79          56.79         0.1661        -0.3784          40.37          1.564          64.97          91.83          32.85
     1.518              -29.35           19.3          77.42          56.72         0.1276        -0.2532           39.3          1.678          64.74          91.47          32.73
     1.558              -29.23           19.2          76.97          56.62        0.08059        -0.1002          37.99          1.818          64.46          91.03          32.57
     1.598              -29.08          19.08          76.41          56.51        0.02259        0.08856          36.38          1.991          64.12          90.49          32.37
     1.638              -28.89          18.93          75.72          56.36       -0.04973          0.324          34.38          2.206          63.69          89.81          32.13
     1.678              -28.65          18.75          74.85          56.18        -0.1408         0.6206          31.85          2.478          63.15          88.95          31.83
     1.718              -28.35          18.51          73.73          55.95        -0.2567         0.9976          28.63          2.822          62.46          87.86          31.44
     1.757              -27.96           18.2          72.31          55.65        -0.4049           1.48          24.52          3.264          61.58          86.47          30.95
     1.797              -27.46          17.81          70.49          55.27        -0.5952          2.099          19.24           3.83          60.45          84.69          30.31
     1.837              -26.83          17.31          68.16          54.78        -0.8382          2.891          12.49          4.554          59.01           82.4           29.5
     1.877              -26.03          16.68          65.22          54.17         -1.144          3.885          4.008          5.464           57.2          79.53          28.48
     1.917              -25.06          15.91          61.65          53.43         -1.516          5.097         -6.329          6.573          54.99          76.04          27.24
